<!--?xml version="1.0" encoding="utf-8"?-->
<!-- Generator: Adobe Illustrator 15.1.0, SVG Export Plug-In . SVG Version: 6.00 Build 0)  -->

<svg version="1.1" id="_x32_" xmlns="http://www.w3.org/2000/svg" xmlns:xlink="http://www.w3.org/1999/xlink" x="0px" y="0px" width="512px" height="512px" viewBox="0 0 512 512" style="width: 32px; height: 32px; opacity: 1;" xml:space="preserve">
<style type="text/css">

	.st0{fill:#4B4B4B;}

</style>
<g>
	<path class="st0" d="M497.258,170.521L367.57,40.834L126.977,281.428l-6.281,6.281L9.82,398.584
		c-13.094,13.109-13.094,34.344,0,47.438l15.328,15.313c13.094,13.109,34.328,13.109,47.438,0l110.875-110.859l66.922,66.922
		c19.656,19.656,51.516,19.656,71.156,0l175.719-175.719C516.914,222.037,516.914,190.178,497.258,170.521z M476.352,220.756
		L300.633,396.475c-8.094,8.094-21.234,8.094-29.328,0L162.539,287.709L367.57,82.678l108.781,108.766
		C484.414,199.521,484.414,212.678,476.352,220.756z" style="fill: rgb(75, 75, 75);"></path>
</g>
</svg>
